<?xml version="1.0" encoding="UTF-8"?>
<svg width="131px" height="32px" viewBox="0 0 131 32" version="1.1" xmlns="http://www.w3.org/2000/svg" xmlns:xlink="http://www.w3.org/1999/xlink">
    <!-- Generator: Sketch 56.3 (81716) - https://sketch.com -->
    <title>Group</title>
    <desc>Created with Sketch.</desc>
    <defs>
        <filter x="-200.0%" y="-50.0%" width="500.0%" height="200.0%" filterUnits="objectBoundingBox" id="filter-1">
            <feOffset dx="0" dy="2" in="SourceAlpha" result="shadowOffsetOuter1"></feOffset>
            <feGaussianBlur stdDeviation="2" in="shadowOffsetOuter1" result="shadowBlurOuter1"></feGaussianBlur>
            <feColorMatrix values="0 0 0 0 0   0 0 0 0 0   0 0 0 0 0  0 0 0 0.5 0" type="matrix" in="shadowBlurOuter1" result="shadowMatrixOuter1"></feColorMatrix>
            <feMerge>
                <feMergeNode in="shadowMatrixOuter1"></feMergeNode>
                <feMergeNode in="SourceGraphic"></feMergeNode>
            </feMerge>
        </filter>
    </defs>
    <g id="Page-1" stroke="none" stroke-width="1" fill="none" fill-rule="evenodd">
        <g id="Group" transform="translate(0.000000, 2.000000)" fill="#111111">
            <g id="musora" transform="translate(0.000000, 7.000000)">
                <path d="M78.5209302,16.7917548 L74.1198732,16.7917548 L74.1198732,0 L78.5086681,0 L78.5086681,0.754122622 L78.7014799,0.679069767 L79.220296,0.48794926 L79.284778,0.465116279 C79.4653277,0.400845666 79.6484144,0.342706131 79.8334038,0.292389006 C80.1496829,0.205285412 80.4712474,0.139112051 80.7964059,0.0934460888 L80.7997886,0.0923890063 C81.045666,0.056448203 81.2921776,0.0300211416 81.5408034,0.0150105708 C81.7019027,0.00528541226 81.8630021,0.000845665962 82.0251586,0 L82.1336152,0 C82.2868922,0.00169133192 82.4391121,0.00697674419 82.5915433,0.0167019027 C82.8911205,0.0361522199 83.1887949,0.0704016913 83.484778,0.121564482 C84.1885835,0.243128964 84.8756871,0.455391121 85.5257928,0.751374207 C85.5813953,0.776955603 85.6378436,0.803382664 85.6932347,0.829809725 C85.669556,0.84820296 85.6465116,0.866807611 85.6236786,0.885412262 C85.1427061,1.26934461 84.6987315,1.69936575 84.3006342,2.16786469 C83.8099366,2.74312896 83.3871036,3.37653277 83.0452431,4.05116279 C82.9606765,4.21775899 82.8805497,4.38604651 82.8065539,4.55687104 C82.7784355,4.55243129 82.7501057,4.54820296 82.7211416,4.54376321 C82.5748414,4.52071882 82.4268499,4.50591966 82.2780127,4.4987315 C82.2128964,4.49534884 82.146723,4.49344609 82.0807611,4.49260042 C82.0429175,4.49260042 82.0048626,4.49260042 81.967019,4.49344609 C81.8921776,4.49534884 81.8173362,4.49788584 81.7424947,4.50317125 C81.6042283,4.51289641 81.4657505,4.52959831 81.3291755,4.55243129 C80.9372093,4.61691332 80.5541226,4.73572939 80.1938689,4.90401691 C80.1674419,4.91627907 80.1418605,4.92875264 80.1171247,4.94186047 C79.9109937,5.07124736 79.7190275,5.22283298 79.5454545,5.39386892 C79.4572939,5.48710359 79.3710359,5.5858351 79.2803383,5.68710359 C79.0900634,5.92325581 78.9323467,6.18477801 78.8124736,6.46321353 C78.7226216,6.67188161 78.6539112,6.89048626 78.6099366,7.1141649 C78.5904863,7.20930233 78.5765328,7.30443975 78.5649049,7.40042283 C78.5623679,7.42769556 78.5596195,7.45412262 78.5570825,7.48160677 L78.5570825,16.7689218 L78.5209302,16.7689218 L78.5209302,16.7917548 Z M5.0987315,16.784778 L0,16.784778 L0,0.00169133192 L5.08816068,0.00169133192 L5.08816068,0.507399577 C5.42811839,0.380549683 5.7769556,0.278435518 6.13192389,0.201691332 C6.56363636,0.107399577 7.00317125,0.0503171247 7.44460888,0.0308668076 C8.29640592,-0.00697674419 9.15433404,0.0934460888 9.97272727,0.332135307 C10.7004228,0.543551797 11.3961945,0.863213531 12.0323467,1.27632135 C12.389852,1.50887949 12.7281184,1.77061311 13.0427061,2.0577167 C13.3579281,1.77061311 13.6961945,1.50887949 14.0539112,1.27632135 C14.4625793,1.01035941 14.8959831,0.783086681 15.3471459,0.598942918 C15.7610994,0.429809725 16.1900634,0.296828753 16.6262156,0.201691332 C17.0585624,0.107399577 17.4983087,0.0503171247 17.9395349,0.0308668076 C18.7913319,-0.00697674419 19.6486258,0.0934460888 20.4678647,0.332135307 C21.1953488,0.543551797 21.8913319,0.863213531 22.5264271,1.27632135 C23.2460888,1.74334038 23.8875264,2.33002114 24.417759,3.00486258 C24.9128964,3.6346723 25.310148,4.34016913 25.5902748,5.09069767 C25.7980973,5.64841438 25.941649,6.22980973 26.0164905,6.82093023 C26.0439746,7.03319239 26.0623679,7.24714588 26.072093,7.46131078 C26.0765328,7.56173362 26.0782241,7.66131078 26.0790698,7.7615222 C26.0887949,10.6598309 26.0862579,13.8875264 26.0835095,16.784778 C26.0835095,16.7961945 20.9803383,16.784778 20.9803383,16.784778 C20.9900634,13.7826638 20.9928118,10.779704 20.9636364,7.77653277 C20.961945,7.65073996 20.9522199,7.52473573 20.932981,7.40042283 C20.8985201,7.17505285 20.8350951,6.95475687 20.7435518,6.74587738 C20.6114165,6.44460888 20.422833,6.16807611 20.1919662,5.9346723 C19.9604651,5.70042283 19.687315,5.50824524 19.3868922,5.37251586 C19.154334,5.26701903 18.9059197,5.19640592 18.6522199,5.16215645 C18.2875264,5.11374207 17.9114165,5.13826638 17.5572939,5.23868922 C17.3255814,5.30486258 17.1019027,5.40443975 16.8966173,5.53023256 C16.7353066,5.62980973 16.584778,5.74608879 16.4473573,5.87737844 C16.2006342,6.11162791 15.9989429,6.39260042 15.8570825,6.70190275 C15.759408,6.91331924 15.6906977,7.13699789 15.6526427,7.36701903 C15.6289641,7.50803383 15.6175476,7.65158562 15.6167019,7.79429175 C15.6069767,10.7911205 15.5911205,13.7879493 15.5936575,16.784778 C15.5883721,16.7961945 10.4854123,16.784778 10.4854123,16.784778 C10.4951374,13.7826638 10.4976744,10.779704 10.469556,7.77653277 C10.4668076,7.65073996 10.4572939,7.52473573 10.4386892,7.40042283 C10.4042283,7.17505285 10.3399577,6.95475687 10.2484144,6.74587738 C10.1171247,6.44460888 9.92769556,6.16807611 9.69704017,5.9346723 C9.4653277,5.70042283 9.19217759,5.50824524 8.89281184,5.37251586 C8.65919662,5.26701903 8.41078224,5.19640592 8.15792812,5.16215645 C7.79238901,5.11374207 7.41712474,5.13826638 7.06215645,5.23868922 C6.83044397,5.30486258 6.60761099,5.40443975 6.40232558,5.53023256 C6.24038055,5.62980973 6.08964059,5.74608879 5.95221987,5.87737844 C5.70570825,6.11162791 5.5038055,6.39260042 5.36194503,6.70190275 C5.26511628,6.91331924 5.19556025,7.13699789 5.1577167,7.36701903 C5.1346723,7.50803383 5.12325581,7.65158562 5.12156448,7.79429175 C5.11268499,10.7911205 5.09598309,13.7879493 5.0987315,16.784778 Z M99.9955603,16.7742072 L95.6069767,16.7742072 L95.6069767,15.7980973 L95.4325581,15.8756871 L94.8801268,16.112685 C94.7128964,16.182241 94.5446089,16.2473573 94.3737844,16.3071882 C94.0697674,16.4139535 93.7587738,16.5019027 93.4443975,16.5725159 C92.7192389,16.7344609 91.9731501,16.7987315 91.2306554,16.7661734 C90.7118393,16.7424947 90.1955603,16.6718816 89.689852,16.5530655 C89.1393235,16.4245243 88.6021142,16.2395349 88.0894292,16.0016913 C87.2938689,15.6325581 86.558351,15.1382664 85.915222,14.5437632 C85.2484144,13.9262156 84.6820296,13.2029598 84.2458774,12.4048626 C83.8477801,11.677167 83.5587738,10.8896406 83.3915433,10.0767442 C83.2742072,9.50317125 83.2179704,8.91818182 83.2212092,8.33255814 C83.2232558,8.00295983 83.2452431,7.67272727 83.2858351,7.34503171 C83.3289641,6.9987315 83.3932347,6.6551797 83.4794926,6.31691332 C83.6010571,5.8359408 83.7668076,5.36553911 83.9729387,4.91374207 C84.1940803,4.43002114 84.4608879,3.96680761 84.7691332,3.53340381 C85.0369979,3.15708245 85.3357294,2.80295983 85.6615222,2.47526427 C86.0754757,2.0577167 86.5344609,1.68435518 87.0260042,1.3627907 C87.4012685,1.11691332 87.7959831,0.902114165 88.2054968,0.719661734 C88.8661734,0.425369979 89.5649049,0.218393235 90.2792812,0.104862579 C90.5769556,0.0572938689 90.8765328,0.0255813953 91.1769556,0.0105708245 C91.3116279,0.00359408034 91.4465116,0 91.5811839,0 C91.6295983,0 91.6780127,0 91.7266385,0.000845665962 C91.8315011,0.00274841438 91.9353066,0.00528541226 92.0401691,0.0105708245 C92.1653277,0.0167019027 92.2902748,0.0264270613 92.4162791,0.0378435518 C92.4162791,0.0378435518 92.6004228,0.0484143763 92.920296,0.104862579 L92.920296,4.18604651 C92.5061311,4.05750529 92.0665962,3.98794926 91.6103594,3.98794926 C89.1782241,3.98794926 87.2031712,5.9627907 87.2031712,8.39598309 C87.2031712,10.8281184 89.1782241,12.8029598 91.6103594,12.8029598 C94.0433404,12.8029598 96.0183932,10.8281184 96.0183932,8.39598309 L96.0183932,1.25264271 C96.2200846,1.37864693 96.4164905,1.51162791 96.607611,1.65348837 C96.9731501,1.9255814 97.3167019,2.22769556 97.6338266,2.55454545 C98.1105708,3.04714588 98.5270613,3.59767442 98.8706131,4.18964059 C99.2054968,4.76828753 99.4714588,5.38752643 99.6600423,6.02980973 C99.8035941,6.5205074 99.9012685,7.02346723 99.9524313,7.53171247 C99.979704,7.7987315 99.9938689,8.06723044 99.9955603,8.33509514 C100.005285,11.1486258 99.9955603,13.9615222 99.9955603,16.7742072 Z M64.687315,0 L64.7955603,0 C64.9479915,0.00169133192 65.1004228,0.00697674419 65.2528541,0.0167019027 C65.5524313,0.0361522199 65.8509514,0.0704016913 66.1469345,0.121564482 C66.85074,0.243128964 67.5378436,0.455391121 68.1871036,0.751374207 C69.038055,1.13995772 69.8230444,1.67103594 70.4993658,2.3167019 C71.1575053,2.94397463 71.7124736,3.6769556 72.1369979,4.48033827 C72.5167019,5.2 72.7906977,5.97505285 72.9465116,6.77420719 C73.1264271,7.69830867 73.1501057,8.65391121 73.0162791,9.58604651 C72.8955603,10.4298097 72.6443975,11.2534884 72.2744186,12.0217759 C72.0287526,12.5308668 71.7310782,13.0143763 71.3892178,13.4636364 C71.1196617,13.817759 70.8219873,14.1498943 70.4993658,14.4572939 C69.7490486,15.1735729 68.8653277,15.7488372 67.9069767,16.1452431 C67.3978858,16.3539112 66.8674419,16.5133192 66.3274841,16.6190275 C65.7875264,16.7247357 65.2369979,16.7758985 64.687315,16.7742478 C64.1551797,16.7723044 63.6230444,16.7213531 63.1016913,16.6190275 C62.5439746,16.5107822 61.9978858,16.344186 61.47463,16.1249471 C60.5179704,15.7232558 59.6389006,15.1427061 58.8928118,14.4221987 C58.5966173,14.1367865 58.3219873,13.8293869 58.0699789,13.5033827 C57.7033827,13.0293869 57.3890063,12.5167019 57.1327696,11.9758985 C56.7661734,11.205074 56.5205074,10.3788584 56.405074,9.53403805 C56.2799154,8.61775899 56.3054968,7.68139535 56.4826638,6.77420719 C56.6331924,5.99978858 56.8938689,5.24841438 57.256871,4.54820296 C57.4885835,4.0987315 57.7615222,3.67061311 58.0699789,3.26997886 C58.3623679,2.89112051 58.6875264,2.53784355 59.0389006,2.21374207 C59.7031712,1.60317125 60.4651163,1.09936575 61.2879493,0.730232558 C61.9475687,0.434249471 62.6452431,0.224735729 63.3589852,0.10845666 C63.638055,0.0634249471 63.9200846,0.0317124736 64.2019027,0.0150105708 C64.3640592,0.00528541226 64.5251586,0.000845665962 64.687315,0 Z M42.5854123,0.00613107822 C42.5845666,2.99767442 42.5784355,5.98837209 42.5784355,8.97906977 C42.5784355,9.11289641 42.5756871,9.24693446 42.5687104,9.37991543 C42.5564482,9.62642706 42.5317125,9.87230444 42.4964059,10.1162791 C42.3942918,10.8139535 42.1961945,11.4966173 41.9097252,12.140592 C41.7054968,12.5995772 41.4570825,13.0382664 41.1680761,13.4488372 C40.872093,13.8697674 40.5346723,14.2617336 40.1630021,14.6169133 C39.8122622,14.95074 39.4319239,15.2520085 39.0257928,15.5154334 C38.6169133,15.7805497 38.1835095,16.0078224 37.7325581,16.1928118 C37.3186047,16.361945 36.8904863,16.494926 36.4534884,16.5900634 C36.0217759,16.6843552 35.582241,16.741649 35.1399577,16.7608879 C34.2881607,16.7987315 33.4310782,16.697463 32.6118393,16.4596195 C31.8841438,16.2473573 31.1883721,15.9293869 30.553277,15.5154334 C29.8336152,15.0475687 29.1930233,14.4617336 28.661945,13.7871036 C28.1676533,13.1570825 27.7704017,12.4515856 27.4902748,11.7010571 C27.2816068,11.1433404 27.1378436,10.5610994 27.0630021,9.97103594 C27.0357294,9.7577167 27.0173362,9.54460888 27.0084567,9.33044397 C27.0040169,9.23002114 27.0014799,9.12959831 27.0004228,9.02917548 C26.9917548,6.13192389 26.9934461,2.90422833 26.9970402,0.00613107822 C26.9970402,-0.0044397463 32.0991543,0.00613107822 32.0991543,0.00613107822 C32.0904863,3.00909091 32.0868922,6.01205074 32.1158562,9.01522199 C32.117759,9.1410148 32.1274841,9.26617336 32.146723,9.39133192 C32.1811839,9.61585624 32.2446089,9.83699789 32.3361522,10.0450317 C32.4682875,10.3471459 32.656871,10.622833 32.8883721,10.8570825 C33.1192389,11.0915433 33.3932347,11.2835095 33.6928118,11.4192389 C33.9262156,11.5238901 34.1737844,11.5953488 34.4274841,11.6295983 C34.7921776,11.6782241 35.1682875,11.6534884 35.5224101,11.5522199 C35.7549683,11.4860465 35.9778013,11.3883721 36.1830867,11.2615222 C36.344186,11.161945 36.4957717,11.0448203 36.6331924,10.9143763 C36.8790698,10.6809725 37.0807611,10.3991543 37.2234672,10.089852 C37.320296,9.87843552 37.3890063,9.65475687 37.4268499,9.42473573 C37.45074,9.28287526 37.4621564,9.14016913 37.4630021,8.997463 C37.4727273,6.00063425 37.4885835,3.00295983 37.4858351,0.00613107822 L42.5854123,0.00613107822 Z M50.2687104,0.00169133192 C50.4264271,0.00274841438 50.5830867,0.00613107822 50.7408034,0.0122621564 C51.1505285,0.0300211416 51.5600423,0.0670190275 51.967019,0.125158562 C52.3044397,0.173572939 52.6410148,0.23615222 52.9729387,0.313530655 C53.2733615,0.384143763 53.5701903,0.466807611 53.861945,0.564693446 C54.15074,0.662367865 54.4344609,0.774207188 54.707611,0.908245243 L54.959408,1.03424947 L53.8680761,4.95327696 L53.554334,4.78414376 C53.5217759,4.76659619 53.5217759,4.76659619 53.4892178,4.74989429 C53.1439746,4.57272727 52.7837209,4.42663848 52.4145877,4.30591966 C52.0198732,4.17632135 51.6145877,4.07674419 51.2033827,4.01606765 C50.9805497,3.98350951 50.755814,3.96236786 50.5302326,3.95623679 C50.3188161,3.94989429 50.1057082,3.95623679 49.8970402,3.98794926 C49.843129,3.99577167 49.7894292,4.00549683 49.7365751,4.01775899 C49.6934461,4.02663848 49.6503171,4.03805497 49.6080338,4.05031712 C49.57463,4.06004228 49.5401691,4.07061311 49.507611,4.08308668 C49.4811839,4.09260042 49.4547569,4.10232558 49.4291755,4.11289641 C49.2617336,4.18350951 49.1031712,4.28816068 48.9985201,4.43890063 C48.977167,4.47061311 48.9579281,4.50317125 48.9412262,4.53763214 C48.9156448,4.59048626 48.8970402,4.64672304 48.884778,4.70486258 C48.8742072,4.75602537 48.8680761,4.80887949 48.8653277,4.86088795 C48.864482,4.89598309 48.864482,4.93044397 48.8672304,4.96575053 C48.8706131,5.02283298 48.8803383,5.07928118 48.8997886,5.13382664 C48.9164905,5.1832981 48.9401691,5.22896406 48.9684989,5.27230444 C49.0107822,5.33382664 49.0617336,5.38752643 49.1173362,5.43699789 C49.1843552,5.49682875 49.2572939,5.54883721 49.3331924,5.59725159 C49.4389006,5.66596195 49.55074,5.72579281 49.6634249,5.78224101 C49.7877378,5.8448203 49.9145877,5.9012685 50.0422833,5.95581395 C50.1955603,6.0217759 50.3515856,6.08350951 50.5082452,6.14249471 C50.6642706,6.202537 50.8219873,6.25961945 50.9794926,6.31606765 C51.094926,6.35665962 51.2103594,6.3961945 51.3249471,6.43763214 C51.3706131,6.45348837 51.4156448,6.47019027 51.4613108,6.48689218 C51.6376321,6.55306554 51.8120507,6.62093023 51.984778,6.694926 C52.1186047,6.75116279 52.25074,6.81014799 52.3820296,6.87272727 C52.4885835,6.9230444 52.5942918,6.97589852 52.6991543,7.03044397 C53.2769556,7.33255814 53.8257928,7.70169133 54.2839323,8.16871036 C54.3454545,8.23107822 54.4054968,8.29534884 54.4634249,8.3615222 C54.5490486,8.45835095 54.6300211,8.55983087 54.7067653,8.66363636 C54.8422833,8.84778013 54.9630021,9.04334038 55.067019,9.24693446 C55.159408,9.42748414 55.2378436,9.6141649 55.3038055,9.80613108 C55.445666,10.2194503 55.5241015,10.651797 55.5549683,11.0879493 C55.5610994,11.1697674 55.5655391,11.2526427 55.5672304,11.3346723 C55.5691332,11.3725159 55.5699789,11.4103594 55.5699789,11.448203 C55.5708245,11.4966173 55.5699789,11.5450317 55.5682875,11.5926004 C55.5663848,11.6868922 55.5610994,11.7803383 55.5541226,11.87463 C55.532981,12.1600423 55.4879493,12.4446089 55.4183932,12.7236786 C55.3452431,13.0179704 55.2439746,13.305074 55.1154334,13.5799154 C54.9435518,13.9465116 54.7224101,14.2900634 54.4608879,14.5991543 C54.2186047,14.8837209 53.9437632,15.1401691 53.6452431,15.3638478 C53.5570825,15.4289641 53.4680761,15.4915433 53.3773784,15.5524313 C52.6849894,16.0086681 51.8983087,16.3082452 51.0932347,16.494926 C50.9627907,16.5257928 50.8306554,16.5530655 50.6993658,16.5778013 C49.959408,16.7169133 49.2044397,16.7689218 48.4522199,16.764482 C47.9976744,16.7600423 47.5422833,16.7363636 47.0904863,16.6877378 C46.7230444,16.6490486 46.3566596,16.5953488 45.9936575,16.5249471 C45.5522199,16.4393235 45.1162791,16.3302326 44.6881607,16.1909091 C44.3410148,16.0782241 44.0002114,15.9460888 43.6708245,15.7875264 C43.5904863,15.7488372 43.5103594,15.7082452 43.4310782,15.6659619 L43.1906977,15.5374207 L44.2926004,11.202537 C44.397463,11.2659619 44.5031712,11.3302326 44.6088795,11.3928118 C44.6291755,11.405074 44.6494715,11.4164905 44.669556,11.4287526 C44.9260042,11.5733615 45.1947146,11.6966173 45.4668076,11.807611 C45.7945032,11.940592 46.1293869,12.0560254 46.4693446,12.1547569 C46.8128964,12.254334 47.1625793,12.3369979 47.5150106,12.3978858 C47.7942918,12.4454545 48.0761099,12.4788584 48.3587738,12.4902748 C48.4750529,12.4947146 48.5904863,12.4955603 48.7067653,12.4921776 C48.8399577,12.4885835 48.9718816,12.479704 49.1042283,12.4638478 C49.2150106,12.45074 49.3260042,12.4321353 49.4353066,12.407611 C49.5807611,12.3731501 49.7251586,12.3264271 49.8572939,12.256871 C49.9454545,12.2120507 50.0281184,12.1556025 50.0968288,12.0852008 C50.1577167,12.0243129 50.2061311,11.9520085 50.2378436,11.8727273 C50.2712474,11.7917548 50.2871036,11.7035941 50.2890063,11.6156448 C50.2915433,11.5372093 50.2837209,11.4579281 50.2545455,11.384778 C50.222833,11.3038055 50.1655391,11.2350951 50.1021142,11.1761099 C50.0634249,11.1399577 50.0211416,11.1073996 49.9788584,11.0765328 C49.9295983,11.0412262 49.8784355,11.0086681 49.8264271,10.9778013 C49.689852,10.8976744 49.5454545,10.8281184 49.4,10.7638478 C49.2680761,10.7057082 49.1340381,10.651797 48.9993658,10.6 C48.8238901,10.532981 48.6477801,10.469556 48.4697674,10.4086681 C48.3640592,10.3716702 48.2575053,10.3365751 48.1509514,10.3004228 C48.1131078,10.2871036 48.0752643,10.2739958 48.0374207,10.2606765 C47.9272727,10.2219873 47.8171247,10.1813953 47.7078224,10.1391121 C47.3784355,10.0133192 47.054334,9.87230444 46.7389006,9.71374207 C46.4446089,9.56659619 46.158351,9.40359408 45.8835095,9.22219873 C45.4139535,8.91205074 44.977167,8.54651163 44.6141649,8.11585624 C44.4706131,7.94566596 44.3393235,7.76596195 44.2221987,7.57653277 C44.0936575,7.36955603 43.9835095,7.15200846 43.8936575,6.92473573 C43.7615222,6.59090909 43.6750529,6.2384778 43.638055,5.88097252 C43.6266385,5.77336152 43.6196617,5.66596195 43.6169133,5.5577167 C43.615222,5.51881607 43.615222,5.48097252 43.615222,5.4422833 L43.6160677,5.30655391 C43.6213531,4.92156448 43.6689218,4.5384778 43.7604651,4.16490486 C43.8575053,3.76849894 44.0054968,3.38435518 44.1991543,3.02494715 C44.3613108,2.7255814 44.554334,2.4435518 44.7744186,2.18372093 C44.9841438,1.93530655 45.2175476,1.70803383 45.469556,1.50274841 C45.6359408,1.36638478 45.8103594,1.24038055 45.9909091,1.12410148 C46.1460888,1.02452431 46.3054968,0.93192389 46.4684989,0.846511628 C47.2613108,0.431712474 48.1359408,0.186680761 49.0221987,0.0748414376 C49.2697674,0.04397463 49.5190275,0.022832981 49.7691332,0.0114164905 C49.8906977,0.00613107822 50.0114165,0.00359408034 50.132981,0.00169133192 L50.2687104,0.00169133192 Z M64.7427061,3.98879493 C64.7048626,3.98794926 64.667019,3.98879493 64.6291755,3.98879493 C64.554334,3.99048626 64.4792812,3.99408034 64.4044397,3.99936575 C64.2661734,4.00909091 64.127907,4.02494715 63.9904863,4.04778013 C63.5985201,4.11289641 63.2162791,4.23107822 62.855814,4.39915433 C62.3678647,4.62748414 61.9230444,4.94630021 61.5486258,5.33382664 C61.2367865,5.65708245 60.9742072,6.02896406 60.7733615,6.43234672 C60.5883721,6.80317125 60.4570825,7.20147992 60.3841438,7.60930233 C60.3004228,8.0769556 60.2932347,8.55792812 60.3621564,9.02832981 C60.4272727,9.47589852 60.5627907,9.91183932 60.7610994,10.3179704 C60.9900634,10.7858351 61.3029598,11.2112051 61.6799154,11.5706131 C62.077167,11.9494715 62.5439746,12.2524313 63.0513742,12.4604651 C63.3448203,12.5801268 63.6513742,12.6682875 63.9632135,12.7219873 C64.220296,12.7659619 64.4820296,12.7871036 64.7427061,12.7854123 C65.0397463,12.7837209 65.3365751,12.7520085 65.6272727,12.6911205 C65.9002114,12.6338266 66.1680761,12.5484144 66.4262156,12.4393235 C66.9308668,12.2260042 67.3942918,11.9169133 67.7862579,11.5336152 C68.1589852,11.1697674 68.4672304,10.7399577 68.6900634,10.269556 C68.8839323,9.86088795 69.0143763,9.42219873 69.0742072,8.97378436 C69.1359408,8.51226216 69.1243129,8.04080338 69.0397463,7.5820296 C68.9604651,7.15729387 68.8188161,6.74418605 68.6188161,6.36109937 C68.4029598,5.94608879 68.1211416,5.56638478 67.7862579,5.24059197 C67.4198732,4.8820296 66.9909091,4.58858351 66.5238901,4.37716702 C66.161945,4.21331924 65.7769556,4.0987315 65.3830867,4.03890063 C65.2361522,4.01606765 65.0881607,4.00105708 64.9401691,3.99408034 C64.8739958,3.99048626 64.8088795,3.98879493 64.7427061,3.98879493 Z" id="Shape"></path>
            </g>
            <g id="pianote" filter="url(#filter-1)" transform="translate(122.000000, 0.000000)" fill-opacity="0.5">
                <path d="M0.601451159,6.9384882 L4.84492094,6.9384882 L4.84492094,23.7890405 L0.601451159,23.7890405 L0.601451159,6.9384882 Z M2.7232402,0 C3.46668833,0 4.1041802,0.26848603 4.63591076,0.805349794 C5.16764133,1.34232185 5.4336149,1.99272255 5.4336149,2.75683344 C5.4336149,3.51056963 5.17024042,4.15330301 4.64370804,4.68503357 C4.11717566,5.21676413 3.48726446,5.48262941 2.75419103,5.48262941 C2.00045484,5.48262941 1.35772146,5.21163093 0.825990903,4.66952567 C0.294260342,4.12750704 0.0283950617,3.4692441 0.0283950617,2.69484514 C0.0283950617,1.95148365 0.291726229,1.31641759 0.818215291,0.789928525 C1.34481265,0.263331167 1.97987871,0 2.7232402,0 Z" id="Shape"></path>
            </g>
            <g id="musora" transform="translate(105.000000, 7.000000)" fill-opacity="0.5">
                <path d="M15.5913013,0.00469814423 C15.5904556,2.99624148 15.5843246,5.98693916 15.5843246,8.97763683 C15.5843246,9.11146347 15.5815761,9.24550153 15.5745994,9.3784825 C15.5623372,9.62499413 15.5376015,9.87087151 15.502295,10.1148461 C15.4001808,10.8125206 15.2020835,11.4951844 14.9156142,12.139159 C14.7113859,12.5981442 14.4629715,13.0368335 14.1739651,13.4474043 C13.8779821,13.8683345 13.5405613,14.2603007 13.1688912,14.6154804 C12.8181512,14.949307 12.4378129,15.2505755 12.0316818,15.5140005 C11.6228024,15.7791167 11.1893986,16.0063895 10.7384472,16.1913789 C10.3244937,16.3605121 9.8963753,16.4934931 9.45937741,16.5886305 C9.02766494,16.6829222 8.58813005,16.7402161 8.14584675,16.759455 C7.29404971,16.7972986 6.43696726,16.6960301 5.61772836,16.4581865 C4.8900328,16.2459244 4.19426113,15.927954 3.55916599,15.5140005 C2.83950426,15.0461358 2.19891229,14.4603007 1.66783407,13.7856707 C1.17354231,13.1556495 0.776290729,12.4501527 0.496163879,11.6996241 C0.287495803,11.1419074 0.14373259,10.5596664 0.0688911522,9.96960301 C0.0416184249,9.75628377 0.0232251902,9.54317595 0.0143456976,9.32901104 C0.00990595133,9.22858821 0.00736895345,9.12816537 0.006311871,9.02774254 C-0.00235620511,6.13049096 -0.00066487319,2.9027954 0.00292920715,0.00469814423 C0.00292920715,-0.00587268029 5.10504337,0.00469814423 5.10504337,0.00469814423 C5.0963753,3.00765798 5.09278122,6.01061781 5.12174527,9.01378905 C5.12364802,9.13958187 5.13337318,9.26474043 5.15261208,9.38989899 C5.18707297,9.6144233 5.25049792,9.83556495 5.34204126,10.0435988 C5.47417656,10.3457129 5.66276007,10.6214 5.89426113,10.8556495 C6.12512794,11.0901104 6.39912371,11.2820766 6.69870088,11.417806 C6.93210468,11.5224571 7.17967339,11.5939159 7.43337318,11.6281654 C7.79806663,11.6767912 8.17417656,11.6520554 8.52829919,11.5507869 C8.76085733,11.4846136 8.98369031,11.3869392 9.18897572,11.2600893 C9.35007508,11.1605121 9.50166071,11.0433874 9.63908143,10.9129434 C9.88495881,10.6795396 10.0866501,10.3977214 10.2293563,10.0884191 C10.326185,9.87700258 10.3948954,9.65332394 10.4327389,9.4233028 C10.456629,9.28144233 10.4680455,9.1387362 10.4688912,8.99603007 C10.4786163,5.99920132 10.4944725,3.0015269 10.4917241,0.00469814423 L15.5913013,0.00469814423 Z" id="Shape"></path>
            </g>
        </g>
    </g>
</svg>