<?xml version="1.0" encoding="UTF-8"?>
<svg width="128px" height="24px" viewBox="0 0 128 24" version="1.1" xmlns="http://www.w3.org/2000/svg" xmlns:xlink="http://www.w3.org/1999/xlink">
    <!-- Generator: Sketch 56.3 (81716) - https://sketch.com -->
    <title>Group</title>
    <desc>Created with Sketch.</desc>
    <g id="Page-1" stroke="none" stroke-width="1" fill="none" fill-rule="evenodd">
        <g id="Group" fill="#FFFFFF">
            <path d="M78.5209302,23.7917548 L74.1198732,23.7917548 L74.1198732,7 L78.5086681,7 L78.5086681,7.75412262 L78.7014799,7.67906977 L79.220296,7.48794926 L79.284778,7.46511628 C79.4653277,7.40084567 79.6484144,7.34270613 79.8334038,7.29238901 C80.1496829,7.20528541 80.4712474,7.13911205 80.7964059,7.09344609 L80.7997886,7.09238901 C81.045666,7.0564482 81.2921776,7.03002114 81.5408034,7.01501057 C81.7019027,7.00528541 81.8630021,7.00084567 82.0251586,7 L82.1336152,7 C82.2868922,7.00169133 82.4391121,7.00697674 82.5915433,7.0167019 C82.8911205,7.03615222 83.1887949,7.07040169 83.484778,7.12156448 C84.1885835,7.24312896 84.8756871,7.45539112 85.5257928,7.75137421 C85.5813953,7.7769556 85.6378436,7.80338266 85.6932347,7.82980973 C85.669556,7.84820296 85.6465116,7.86680761 85.6236786,7.88541226 C85.1427061,8.26934461 84.6987315,8.69936575 84.3006342,9.16786469 C83.8099366,9.74312896 83.3871036,10.3765328 83.0452431,11.0511628 C82.9606765,11.217759 82.8805497,11.3860465 82.8065539,11.556871 C82.7784355,11.5524313 82.7501057,11.548203 82.7211416,11.5437632 C82.5748414,11.5207188 82.4268499,11.5059197 82.2780127,11.4987315 C82.2128964,11.4953488 82.146723,11.4934461 82.0807611,11.4926004 C82.0429175,11.4926004 82.0048626,11.4926004 81.967019,11.4934461 C81.8921776,11.4953488 81.8173362,11.4978858 81.7424947,11.5031712 C81.6042283,11.5128964 81.4657505,11.5295983 81.3291755,11.5524313 C80.9372093,11.6169133 80.5541226,11.7357294 80.1938689,11.9040169 C80.1674419,11.9162791 80.1418605,11.9287526 80.1171247,11.9418605 C79.9109937,12.0712474 79.7190275,12.222833 79.5454545,12.3938689 C79.4572939,12.4871036 79.3710359,12.5858351 79.2803383,12.6871036 C79.0900634,12.9232558 78.9323467,13.184778 78.8124736,13.4632135 C78.7226216,13.6718816 78.6539112,13.8904863 78.6099366,14.1141649 C78.5904863,14.2093023 78.5765328,14.3044397 78.5649049,14.4004228 C78.5623679,14.4276956 78.5596195,14.4541226 78.5570825,14.4816068 L78.5570825,23.7689218 L78.5209302,23.7689218 L78.5209302,23.7917548 Z M5.0987315,23.784778 L0,23.784778 L0,7.00169133 L5.08816068,7.00169133 L5.08816068,7.50739958 C5.42811839,7.38054968 5.7769556,7.27843552 6.13192389,7.20169133 C6.56363636,7.10739958 7.00317125,7.05031712 7.44460888,7.03086681 C8.29640592,6.99302326 9.15433404,7.09344609 9.97272727,7.33213531 C10.7004228,7.5435518 11.3961945,7.86321353 12.0323467,8.27632135 C12.389852,8.50887949 12.7281184,8.77061311 13.0427061,9.0577167 C13.3579281,8.77061311 13.6961945,8.50887949 14.0539112,8.27632135 C14.4625793,8.01035941 14.8959831,7.78308668 15.3471459,7.59894292 C15.7610994,7.42980973 16.1900634,7.29682875 16.6262156,7.20169133 C17.0585624,7.10739958 17.4983087,7.05031712 17.9395349,7.03086681 C18.7913319,6.99302326 19.6486258,7.09344609 20.4678647,7.33213531 C21.1953488,7.5435518 21.8913319,7.86321353 22.5264271,8.27632135 C23.2460888,8.74334038 23.8875264,9.33002114 24.417759,10.0048626 C24.9128964,10.6346723 25.310148,11.3401691 25.5902748,12.0906977 C25.7980973,12.6484144 25.941649,13.2298097 26.0164905,13.8209302 C26.0439746,14.0331924 26.0623679,14.2471459 26.072093,14.4613108 C26.0765328,14.5617336 26.0782241,14.6613108 26.0790698,14.7615222 C26.0887949,17.6598309 26.0862579,20.8875264 26.0835095,23.784778 C26.0835095,23.7961945 20.9803383,23.784778 20.9803383,23.784778 C20.9900634,20.7826638 20.9928118,17.779704 20.9636364,14.7765328 C20.961945,14.65074 20.9522199,14.5247357 20.932981,14.4004228 C20.8985201,14.1750529 20.8350951,13.9547569 20.7435518,13.7458774 C20.6114165,13.4446089 20.422833,13.1680761 20.1919662,12.9346723 C19.9604651,12.7004228 19.687315,12.5082452 19.3868922,12.3725159 C19.154334,12.267019 18.9059197,12.1964059 18.6522199,12.1621564 C18.2875264,12.1137421 17.9114165,12.1382664 17.5572939,12.2386892 C17.3255814,12.3048626 17.1019027,12.4044397 16.8966173,12.5302326 C16.7353066,12.6298097 16.584778,12.7460888 16.4473573,12.8773784 C16.2006342,13.1116279 15.9989429,13.3926004 15.8570825,13.7019027 C15.759408,13.9133192 15.6906977,14.1369979 15.6526427,14.367019 C15.6289641,14.5080338 15.6175476,14.6515856 15.6167019,14.7942918 C15.6069767,17.7911205 15.5911205,20.7879493 15.5936575,23.784778 C15.5883721,23.7961945 10.4854123,23.784778 10.4854123,23.784778 C10.4951374,20.7826638 10.4976744,17.779704 10.469556,14.7765328 C10.4668076,14.65074 10.4572939,14.5247357 10.4386892,14.4004228 C10.4042283,14.1750529 10.3399577,13.9547569 10.2484144,13.7458774 C10.1171247,13.4446089 9.92769556,13.1680761 9.69704017,12.9346723 C9.4653277,12.7004228 9.19217759,12.5082452 8.89281184,12.3725159 C8.65919662,12.267019 8.41078224,12.1964059 8.15792812,12.1621564 C7.79238901,12.1137421 7.41712474,12.1382664 7.06215645,12.2386892 C6.83044397,12.3048626 6.60761099,12.4044397 6.40232558,12.5302326 C6.24038055,12.6298097 6.08964059,12.7460888 5.95221987,12.8773784 C5.70570825,13.1116279 5.5038055,13.3926004 5.36194503,13.7019027 C5.26511628,13.9133192 5.19556025,14.1369979 5.1577167,14.367019 C5.1346723,14.5080338 5.12325581,14.6515856 5.12156448,14.7942918 C5.11268499,17.7911205 5.09598309,20.7879493 5.0987315,23.784778 Z M99.9955603,23.7742072 L95.6069767,23.7742072 L95.6069767,22.7980973 L95.4325581,22.8756871 L94.8801268,23.112685 C94.7128964,23.182241 94.5446089,23.2473573 94.3737844,23.3071882 C94.0697674,23.4139535 93.7587738,23.5019027 93.4443975,23.5725159 C92.7192389,23.7344609 91.9731501,23.7987315 91.2306554,23.7661734 C90.7118393,23.7424947 90.1955603,23.6718816 89.689852,23.5530655 C89.1393235,23.4245243 88.6021142,23.2395349 88.0894292,23.0016913 C87.2938689,22.6325581 86.558351,22.1382664 85.915222,21.5437632 C85.2484144,20.9262156 84.6820296,20.2029598 84.2458774,19.4048626 C83.8477801,18.677167 83.5587738,17.8896406 83.3915433,17.0767442 C83.2742072,16.5031712 83.2179704,15.9181818 83.2212092,15.3325581 C83.2232558,15.0029598 83.2452431,14.6727273 83.2858351,14.3450317 C83.3289641,13.9987315 83.3932347,13.6551797 83.4794926,13.3169133 C83.6010571,12.8359408 83.7668076,12.3655391 83.9729387,11.9137421 C84.1940803,11.4300211 84.4608879,10.9668076 84.7691332,10.5334038 C85.0369979,10.1570825 85.3357294,9.80295983 85.6615222,9.47526427 C86.0754757,9.0577167 86.5344609,8.68435518 87.0260042,8.3627907 C87.4012685,8.11691332 87.7959831,7.90211416 88.2054968,7.71966173 C88.8661734,7.42536998 89.5649049,7.21839323 90.2792812,7.10486258 C90.5769556,7.05729387 90.8765328,7.0255814 91.1769556,7.01057082 C91.3116279,7.00359408 91.4465116,7 91.5811839,7 C91.6295983,7 91.6780127,7 91.7266385,7.00084567 C91.8315011,7.00274841 91.9353066,7.00528541 92.0401691,7.01057082 C92.1653277,7.0167019 92.2902748,7.02642706 92.4162791,7.03784355 C92.4162791,7.03784355 92.6004228,7.04841438 92.920296,7.10486258 L92.920296,11.1860465 C92.5061311,11.0575053 92.0665962,10.9879493 91.6103594,10.9879493 C89.1782241,10.9879493 87.2031712,12.9627907 87.2031712,15.3959831 C87.2031712,17.8281184 89.1782241,19.8029598 91.6103594,19.8029598 C94.0433404,19.8029598 96.0183932,17.8281184 96.0183932,15.3959831 L96.0183932,8.25264271 C96.2200846,8.37864693 96.4164905,8.51162791 96.607611,8.65348837 C96.9731501,8.9255814 97.3167019,9.22769556 97.6338266,9.55454545 C98.1105708,10.0471459 98.5270613,10.5976744 98.8706131,11.1896406 C99.2054968,11.7682875 99.4714588,12.3875264 99.6600423,13.0298097 C99.8035941,13.5205074 99.9012685,14.0234672 99.9524313,14.5317125 C99.979704,14.7987315 99.9938689,15.0672304 99.9955603,15.3350951 C100.005285,18.1486258 99.9955603,20.9615222 99.9955603,23.7742072 Z M64.687315,7 L64.7955603,7 C64.9479915,7.00169133 65.1004228,7.00697674 65.2528541,7.0167019 C65.5524313,7.03615222 65.8509514,7.07040169 66.1469345,7.12156448 C66.85074,7.24312896 67.5378436,7.45539112 68.1871036,7.75137421 C69.038055,8.13995772 69.8230444,8.67103594 70.4993658,9.3167019 C71.1575053,9.94397463 71.7124736,10.6769556 72.1369979,11.4803383 C72.5167019,12.2 72.7906977,12.9750529 72.9465116,13.7742072 C73.1264271,14.6983087 73.1501057,15.6539112 73.0162791,16.5860465 C72.8955603,17.4298097 72.6443975,18.2534884 72.2744186,19.0217759 C72.0287526,19.5308668 71.7310782,20.0143763 71.3892178,20.4636364 C71.1196617,20.817759 70.8219873,21.1498943 70.4993658,21.4572939 C69.7490486,22.1735729 68.8653277,22.7488372 67.9069767,23.1452431 C67.3978858,23.3539112 66.8674419,23.5133192 66.3274841,23.6190275 C65.7875264,23.7247357 65.2369979,23.7758985 64.687315,23.7742478 C64.1551797,23.7723044 63.6230444,23.7213531 63.1016913,23.6190275 C62.5439746,23.5107822 61.9978858,23.344186 61.47463,23.1249471 C60.5179704,22.7232558 59.6389006,22.1427061 58.8928118,21.4221987 C58.5966173,21.1367865 58.3219873,20.8293869 58.0699789,20.5033827 C57.7033827,20.0293869 57.3890063,19.5167019 57.1327696,18.9758985 C56.7661734,18.205074 56.5205074,17.3788584 56.405074,16.5340381 C56.2799154,15.617759 56.3054968,14.6813953 56.4826638,13.7742072 C56.6331924,12.9997886 56.8938689,12.2484144 57.256871,11.548203 C57.4885835,11.0987315 57.7615222,10.6706131 58.0699789,10.2699789 C58.3623679,9.89112051 58.6875264,9.53784355 59.0389006,9.21374207 C59.7031712,8.60317125 60.4651163,8.09936575 61.2879493,7.73023256 C61.9475687,7.43424947 62.6452431,7.22473573 63.3589852,7.10845666 C63.638055,7.06342495 63.9200846,7.03171247 64.2019027,7.01501057 C64.3640592,7.00528541 64.5251586,7.00084567 64.687315,7 Z M42.5854123,7.00613108 C42.5845666,9.99767442 42.5784355,12.9883721 42.5784355,15.9790698 C42.5784355,16.1128964 42.5756871,16.2469345 42.5687104,16.3799154 C42.5564482,16.6264271 42.5317125,16.8723044 42.4964059,17.1162791 C42.3942918,17.8139535 42.1961945,18.4966173 41.9097252,19.140592 C41.7054968,19.5995772 41.4570825,20.0382664 41.1680761,20.4488372 C40.872093,20.8697674 40.5346723,21.2617336 40.1630021,21.6169133 C39.8122622,21.95074 39.4319239,22.2520085 39.0257928,22.5154334 C38.6169133,22.7805497 38.1835095,23.0078224 37.7325581,23.1928118 C37.3186047,23.361945 36.8904863,23.494926 36.4534884,23.5900634 C36.0217759,23.6843552 35.582241,23.741649 35.1399577,23.7608879 C34.2881607,23.7987315 33.4310782,23.697463 32.6118393,23.4596195 C31.8841438,23.2473573 31.1883721,22.9293869 30.553277,22.5154334 C29.8336152,22.0475687 29.1930233,21.4617336 28.661945,20.7871036 C28.1676533,20.1570825 27.7704017,19.4515856 27.4902748,18.7010571 C27.2816068,18.1433404 27.1378436,17.5610994 27.0630021,16.9710359 C27.0357294,16.7577167 27.0173362,16.5446089 27.0084567,16.330444 C27.0040169,16.2300211 27.0014799,16.1295983 27.0004228,16.0291755 C26.9917548,13.1319239 26.9934461,9.90422833 26.9970402,7.00613108 C26.9970402,6.99556025 32.0991543,7.00613108 32.0991543,7.00613108 C32.0904863,10.0090909 32.0868922,13.0120507 32.1158562,16.015222 C32.117759,16.1410148 32.1274841,16.2661734 32.146723,16.3913319 C32.1811839,16.6158562 32.2446089,16.8369979 32.3361522,17.0450317 C32.4682875,17.3471459 32.656871,17.622833 32.8883721,17.8570825 C33.1192389,18.0915433 33.3932347,18.2835095 33.6928118,18.4192389 C33.9262156,18.5238901 34.1737844,18.5953488 34.4274841,18.6295983 C34.7921776,18.6782241 35.1682875,18.6534884 35.5224101,18.5522199 C35.7549683,18.4860465 35.9778013,18.3883721 36.1830867,18.2615222 C36.344186,18.161945 36.4957717,18.0448203 36.6331924,17.9143763 C36.8790698,17.6809725 37.0807611,17.3991543 37.2234672,17.089852 C37.320296,16.8784355 37.3890063,16.6547569 37.4268499,16.4247357 C37.45074,16.2828753 37.4621564,16.1401691 37.4630021,15.997463 C37.4727273,13.0006342 37.4885835,10.0029598 37.4858351,7.00613108 L42.5854123,7.00613108 Z M50.2687104,7.00169133 C50.4264271,7.00274841 50.5830867,7.00613108 50.7408034,7.01226216 C51.1505285,7.03002114 51.5600423,7.06701903 51.967019,7.12515856 C52.3044397,7.17357294 52.6410148,7.23615222 52.9729387,7.31353066 C53.2733615,7.38414376 53.5701903,7.46680761 53.861945,7.56469345 C54.15074,7.66236786 54.4344609,7.77420719 54.707611,7.90824524 L54.959408,8.03424947 L53.8680761,11.953277 L53.554334,11.7841438 C53.5217759,11.7665962 53.5217759,11.7665962 53.4892178,11.7498943 C53.1439746,11.5727273 52.7837209,11.4266385 52.4145877,11.3059197 C52.0198732,11.1763214 51.6145877,11.0767442 51.2033827,11.0160677 C50.9805497,10.9835095 50.755814,10.9623679 50.5302326,10.9562368 C50.3188161,10.9498943 50.1057082,10.9562368 49.8970402,10.9879493 C49.843129,10.9957717 49.7894292,11.0054968 49.7365751,11.017759 C49.6934461,11.0266385 49.6503171,11.038055 49.6080338,11.0503171 C49.57463,11.0600423 49.5401691,11.0706131 49.507611,11.0830867 C49.4811839,11.0926004 49.4547569,11.1023256 49.4291755,11.1128964 C49.2617336,11.1835095 49.1031712,11.2881607 48.9985201,11.4389006 C48.977167,11.4706131 48.9579281,11.5031712 48.9412262,11.5376321 C48.9156448,11.5904863 48.8970402,11.646723 48.884778,11.7048626 C48.8742072,11.7560254 48.8680761,11.8088795 48.8653277,11.8608879 C48.864482,11.8959831 48.864482,11.930444 48.8672304,11.9657505 C48.8706131,12.022833 48.8803383,12.0792812 48.8997886,12.1338266 C48.9164905,12.1832981 48.9401691,12.2289641 48.9684989,12.2723044 C49.0107822,12.3338266 49.0617336,12.3875264 49.1173362,12.4369979 C49.1843552,12.4968288 49.2572939,12.5488372 49.3331924,12.5972516 C49.4389006,12.6659619 49.55074,12.7257928 49.6634249,12.782241 C49.7877378,12.8448203 49.9145877,12.9012685 50.0422833,12.955814 C50.1955603,13.0217759 50.3515856,13.0835095 50.5082452,13.1424947 C50.6642706,13.202537 50.8219873,13.2596195 50.9794926,13.3160677 C51.094926,13.3566596 51.2103594,13.3961945 51.3249471,13.4376321 C51.3706131,13.4534884 51.4156448,13.4701903 51.4613108,13.4868922 C51.6376321,13.5530655 51.8120507,13.6209302 51.984778,13.694926 C52.1186047,13.7511628 52.25074,13.810148 52.3820296,13.8727273 C52.4885835,13.9230444 52.5942918,13.9758985 52.6991543,14.030444 C53.2769556,14.3325581 53.8257928,14.7016913 54.2839323,15.1687104 C54.3454545,15.2310782 54.4054968,15.2953488 54.4634249,15.3615222 C54.5490486,15.458351 54.6300211,15.5598309 54.7067653,15.6636364 C54.8422833,15.8477801 54.9630021,16.0433404 55.067019,16.2469345 C55.159408,16.4274841 55.2378436,16.6141649 55.3038055,16.8061311 C55.445666,17.2194503 55.5241015,17.651797 55.5549683,18.0879493 C55.5610994,18.1697674 55.5655391,18.2526427 55.5672304,18.3346723 C55.5691332,18.3725159 55.5699789,18.4103594 55.5699789,18.448203 C55.5708245,18.4966173 55.5699789,18.5450317 55.5682875,18.5926004 C55.5663848,18.6868922 55.5610994,18.7803383 55.5541226,18.87463 C55.532981,19.1600423 55.4879493,19.4446089 55.4183932,19.7236786 C55.3452431,20.0179704 55.2439746,20.305074 55.1154334,20.5799154 C54.9435518,20.9465116 54.7224101,21.2900634 54.4608879,21.5991543 C54.2186047,21.8837209 53.9437632,22.1401691 53.6452431,22.3638478 C53.5570825,22.4289641 53.4680761,22.4915433 53.3773784,22.5524313 C52.6849894,23.0086681 51.8983087,23.3082452 51.0932347,23.494926 C50.9627907,23.5257928 50.8306554,23.5530655 50.6993658,23.5778013 C49.959408,23.7169133 49.2044397,23.7689218 48.4522199,23.764482 C47.9976744,23.7600423 47.5422833,23.7363636 47.0904863,23.6877378 C46.7230444,23.6490486 46.3566596,23.5953488 45.9936575,23.5249471 C45.5522199,23.4393235 45.1162791,23.3302326 44.6881607,23.1909091 C44.3410148,23.0782241 44.0002114,22.9460888 43.6708245,22.7875264 C43.5904863,22.7488372 43.5103594,22.7082452 43.4310782,22.6659619 L43.1906977,22.5374207 L44.2926004,18.202537 C44.397463,18.2659619 44.5031712,18.3302326 44.6088795,18.3928118 C44.6291755,18.405074 44.6494715,18.4164905 44.669556,18.4287526 C44.9260042,18.5733615 45.1947146,18.6966173 45.4668076,18.807611 C45.7945032,18.940592 46.1293869,19.0560254 46.4693446,19.1547569 C46.8128964,19.254334 47.1625793,19.3369979 47.5150106,19.3978858 C47.7942918,19.4454545 48.0761099,19.4788584 48.3587738,19.4902748 C48.4750529,19.4947146 48.5904863,19.4955603 48.7067653,19.4921776 C48.8399577,19.4885835 48.9718816,19.479704 49.1042283,19.4638478 C49.2150106,19.45074 49.3260042,19.4321353 49.4353066,19.407611 C49.5807611,19.3731501 49.7251586,19.3264271 49.8572939,19.256871 C49.9454545,19.2120507 50.0281184,19.1556025 50.0968288,19.0852008 C50.1577167,19.0243129 50.2061311,18.9520085 50.2378436,18.8727273 C50.2712474,18.7917548 50.2871036,18.7035941 50.2890063,18.6156448 C50.2915433,18.5372093 50.2837209,18.4579281 50.2545455,18.384778 C50.222833,18.3038055 50.1655391,18.2350951 50.1021142,18.1761099 C50.0634249,18.1399577 50.0211416,18.1073996 49.9788584,18.0765328 C49.9295983,18.0412262 49.8784355,18.0086681 49.8264271,17.9778013 C49.689852,17.8976744 49.5454545,17.8281184 49.4,17.7638478 C49.2680761,17.7057082 49.1340381,17.651797 48.9993658,17.6 C48.8238901,17.532981 48.6477801,17.469556 48.4697674,17.4086681 C48.3640592,17.3716702 48.2575053,17.3365751 48.1509514,17.3004228 C48.1131078,17.2871036 48.0752643,17.2739958 48.0374207,17.2606765 C47.9272727,17.2219873 47.8171247,17.1813953 47.7078224,17.1391121 C47.3784355,17.0133192 47.054334,16.8723044 46.7389006,16.7137421 C46.4446089,16.5665962 46.158351,16.4035941 45.8835095,16.2221987 C45.4139535,15.9120507 44.977167,15.5465116 44.6141649,15.1158562 C44.4706131,14.945666 44.3393235,14.7659619 44.2221987,14.5765328 C44.0936575,14.369556 43.9835095,14.1520085 43.8936575,13.9247357 C43.7615222,13.5909091 43.6750529,13.2384778 43.638055,12.8809725 C43.6266385,12.7733615 43.6196617,12.6659619 43.6169133,12.5577167 C43.615222,12.5188161 43.615222,12.4809725 43.615222,12.4422833 L43.6160677,12.3065539 C43.6213531,11.9215645 43.6689218,11.5384778 43.7604651,11.1649049 C43.8575053,10.7684989 44.0054968,10.3843552 44.1991543,10.0249471 C44.3613108,9.7255814 44.554334,9.4435518 44.7744186,9.18372093 C44.9841438,8.93530655 45.2175476,8.70803383 45.469556,8.50274841 C45.6359408,8.36638478 45.8103594,8.24038055 45.9909091,8.12410148 C46.1460888,8.02452431 46.3054968,7.93192389 46.4684989,7.84651163 C47.2613108,7.43171247 48.1359408,7.18668076 49.0221987,7.07484144 C49.2697674,7.04397463 49.5190275,7.02283298 49.7691332,7.01141649 C49.8906977,7.00613108 50.0114165,7.00359408 50.132981,7.00169133 L50.2687104,7.00169133 Z M64.7427061,10.9887949 C64.7048626,10.9879493 64.667019,10.9887949 64.6291755,10.9887949 C64.554334,10.9904863 64.4792812,10.9940803 64.4044397,10.9993658 C64.2661734,11.0090909 64.127907,11.0249471 63.9904863,11.0477801 C63.5985201,11.1128964 63.2162791,11.2310782 62.855814,11.3991543 C62.3678647,11.6274841 61.9230444,11.9463002 61.5486258,12.3338266 C61.2367865,12.6570825 60.9742072,13.0289641 60.7733615,13.4323467 C60.5883721,13.8031712 60.4570825,14.2014799 60.3841438,14.6093023 C60.3004228,15.0769556 60.2932347,15.5579281 60.3621564,16.0283298 C60.4272727,16.4758985 60.5627907,16.9118393 60.7610994,17.3179704 C60.9900634,17.7858351 61.3029598,18.2112051 61.6799154,18.5706131 C62.077167,18.9494715 62.5439746,19.2524313 63.0513742,19.4604651 C63.3448203,19.5801268 63.6513742,19.6682875 63.9632135,19.7219873 C64.220296,19.7659619 64.4820296,19.7871036 64.7427061,19.7854123 C65.0397463,19.7837209 65.3365751,19.7520085 65.6272727,19.6911205 C65.9002114,19.6338266 66.1680761,19.5484144 66.4262156,19.4393235 C66.9308668,19.2260042 67.3942918,18.9169133 67.7862579,18.5336152 C68.1589852,18.1697674 68.4672304,17.7399577 68.6900634,17.269556 C68.8839323,16.8608879 69.0143763,16.4221987 69.0742072,15.9737844 C69.1359408,15.5122622 69.1243129,15.0408034 69.0397463,14.5820296 C68.9604651,14.1572939 68.8188161,13.744186 68.6188161,13.3610994 C68.4029598,12.9460888 68.1211416,12.5663848 67.7862579,12.240592 C67.4198732,11.8820296 66.9909091,11.5885835 66.5238901,11.377167 C66.161945,11.2133192 65.7769556,11.0987315 65.3830867,11.0389006 C65.2361522,11.0160677 65.0881607,11.0010571 64.9401691,10.9940803 C64.8739958,10.9904863 64.8088795,10.9887949 64.7427061,10.9887949 Z" id="Shape"></path>
            <path d="M122.601451,6.9384882 L126.844921,6.9384882 L126.844921,23.7890405 L122.601451,23.7890405 L122.601451,6.9384882 Z M124.72324,0 C125.466688,0 126.10418,0.26848603 126.635911,0.805349794 C127.167641,1.34232185 127.433615,1.99272255 127.433615,2.75683344 C127.433615,3.51056963 127.17024,4.15330301 126.643708,4.68503357 C126.117176,5.21676413 125.487264,5.48262941 124.754191,5.48262941 C124.000455,5.48262941 123.357721,5.21163093 122.825991,4.66952567 C122.29426,4.12750704 122.028395,3.4692441 122.028395,2.69484514 C122.028395,1.95148365 122.291726,1.31641759 122.818215,0.789928525 C123.344813,0.263331167 123.979879,0 124.72324,0 Z" id="Shape" fill-opacity="0.3"></path>
            <path d="M120.591301,7.00469814 C120.590456,9.99624148 120.584325,12.9869392 120.584325,15.9776368 C120.584325,16.1114635 120.581576,16.2455015 120.574599,16.3784825 C120.562337,16.6249941 120.537602,16.8708715 120.502295,17.1148461 C120.400181,17.8125206 120.202084,18.4951844 119.915614,19.139159 C119.711386,19.5981442 119.462971,20.0368335 119.173965,20.4474043 C118.877982,20.8683345 118.540561,21.2603007 118.168891,21.6154804 C117.818151,21.949307 117.437813,22.2505755 117.031682,22.5140005 C116.622802,22.7791167 116.189399,23.0063895 115.738447,23.1913789 C115.324494,23.3605121 114.896375,23.4934931 114.459377,23.5886305 C114.027665,23.6829222 113.58813,23.7402161 113.145847,23.759455 C112.29405,23.7972986 111.436967,23.6960301 110.617728,23.4581865 C109.890033,23.2459244 109.194261,22.927954 108.559166,22.5140005 C107.839504,22.0461358 107.198912,21.4603007 106.667834,20.7856707 C106.173542,20.1556495 105.776291,19.4501527 105.496164,18.6996241 C105.287496,18.1419074 105.143733,17.5596664 105.068891,16.969603 C105.041618,16.7562838 105.023225,16.5431759 105.014346,16.329011 C105.009906,16.2285882 105.007369,16.1281654 105.006312,16.0277425 C104.997644,13.130491 104.999335,9.9027954 105.002929,7.00469814 C105.002929,6.99412732 110.105043,7.00469814 110.105043,7.00469814 C110.096375,10.007658 110.092781,13.0106178 110.121745,16.0137891 C110.123648,16.1395819 110.133373,16.2647404 110.152612,16.389899 C110.187073,16.6144233 110.250498,16.835565 110.342041,17.0435988 C110.474177,17.3457129 110.66276,17.6214 110.894261,17.8556495 C111.125128,18.0901104 111.399124,18.2820766 111.698701,18.417806 C111.932105,18.5224571 112.179673,18.5939159 112.433373,18.6281654 C112.798067,18.6767912 113.174177,18.6520554 113.528299,18.5507869 C113.760857,18.4846136 113.98369,18.3869392 114.188976,18.2600893 C114.350075,18.1605121 114.501661,18.0433874 114.639081,17.9129434 C114.884959,17.6795396 115.08665,17.3977214 115.229356,17.0884191 C115.326185,16.8770026 115.394895,16.6533239 115.432739,16.4233028 C115.456629,16.2814423 115.468045,16.1387362 115.468891,15.9960301 C115.478616,12.9992013 115.494473,10.0015269 115.491724,7.00469814 L120.591301,7.00469814 Z" id="Shape" fill-opacity="0.3"></path>
        </g>
    </g>
</svg>